<mxfile host="app.diagrams.net" modified="2022-06-04T10:15:23.157Z" agent="5.0 (Windows NT 10.0; Win64; x64) AppleWebKit/537.36 (KHTML, like Gecko) Chrome/102.0.0.0 Safari/537.36" etag="-NmXZ2R4cxE1Li_5C9Tx" version="19.0.0" type="github">
  <diagram id="FMXjQB1aIxB4md0HR3l6" name="Page-1">
    <mxGraphModel dx="700" dy="752" grid="1" gridSize="10" guides="1" tooltips="1" connect="1" arrows="1" fold="1" page="1" pageScale="1" pageWidth="850" pageHeight="1100" math="0" shadow="0">
      <root>
        <mxCell id="0" />
        <mxCell id="1" parent="0" />
        <mxCell id="12ZCaDhA3wb4f9CBfFdF-1" value="" style="swimlane;startSize=0;" parent="1" vertex="1">
          <mxGeometry x="140" y="100" width="630" height="700" as="geometry" />
        </mxCell>
        <mxCell id="kOYGMovy5z7fQG_Vj6xM-1" value="VOICE TO TEXT APPLICATION FOR MAKING HOSPITAL PROGRESS NOTES" style="text;html=1;align=center;verticalAlign=middle;resizable=0;points=[];autosize=1;strokeColor=none;fillColor=none;" vertex="1" parent="12ZCaDhA3wb4f9CBfFdF-1">
          <mxGeometry x="95" y="10" width="440" height="20" as="geometry" />
        </mxCell>
        <mxCell id="kOYGMovy5z7fQG_Vj6xM-3" value="Record" style="html=1;" vertex="1" parent="12ZCaDhA3wb4f9CBfFdF-1">
          <mxGeometry x="120" y="140" width="110" height="50" as="geometry" />
        </mxCell>
        <mxCell id="kOYGMovy5z7fQG_Vj6xM-2" value="User" style="shape=umlActor;verticalLabelPosition=bottom;verticalAlign=top;html=1;" vertex="1" parent="1">
          <mxGeometry x="40" y="410" width="30" height="60" as="geometry" />
        </mxCell>
      </root>
    </mxGraphModel>
  </diagram>
</mxfile>
